<?xml version="1.0" standalone="no"?>
<!DOCTYPE svg PUBLIC "-//W3C//DTD SVG 20010904//EN"
 "http://www.w3.org/TR/2001/REC-SVG-20010904/DTD/svg10.dtd">
<svg version="1.0" xmlns="http://www.w3.org/2000/svg"
 width="283.000000pt" height="320.000000pt" viewBox="0 0 283.000000 320.000000"
 preserveAspectRatio="xMidYMid meet">
<metadata>
Created by potrace 1.16, written by Peter Selinger 2001-2019
</metadata>
<g transform="translate(0.000000,320.000000) scale(0.100000,-0.100000)"
fill="#000000" stroke="none">
<path d="M1116 3164 c-399 -59 -1028 -176 -1093 -204 -28 -12 -29 -34 -8 -210
8 -69 19 -163 25 -210 5 -47 34 -294 65 -550 30 -256 62 -523 70 -595 71 -607
93 -777 101 -784 30 -27 1114 -591 1137 -591 15 0 255 121 583 294 306 162
558 296 560 298 2 2 15 101 29 218 14 118 32 269 40 335 8 66 37 314 65 550
28 237 57 482 64 545 60 487 80 680 70 690 -41 41 -1247 252 -1422 249 -32 0
-160 -16 -286 -35z m904 -339 c272 -47 508 -89 525 -93 21 -6 31 -15 33 -31 5
-32 -57 -561 -68 -588 -6 -15 -18 -23 -32 -23 -13 0 -129 22 -257 50 -129 27
-239 47 -243 44 -10 -6 -10 -105 0 -119 4 -6 112 -109 240 -229 191 -179 232
-222 232 -244 0 -45 -87 -759 -94 -770 -3 -6 -90 -54 -192 -107 -125 -65 -189
-94 -196 -87 -7 7 -10 150 -9 399 l2 388 -246 279 -245 279 0 469 0 468 28 0
c15 0 250 -38 522 -85z m-879 -161 c4 -115 4 -320 1 -456 -5 -228 -4 -249 13
-275 10 -15 138 -155 283 -311 l265 -283 -2 -442 c-1 -243 -5 -445 -10 -449
-20 -21 -239 -131 -261 -131 -25 0 -891 453 -921 482 -13 12 -23 72 -44 249
-15 128 -25 235 -22 238 2 3 96 -38 208 -91 112 -54 219 -103 237 -111 l32
-14 0 92 -1 93 -239 205 c-132 113 -252 215 -266 226 -26 21 -27 27 -84 515
-45 380 -56 497 -47 506 17 17 811 176 842 169 6 -2 12 -86 16 -212z"/>
</g>
</svg>
